<?xml version="1.0" encoding="utf-8"?>
<!-- Generator: Adobe Illustrator 18.0.0, SVG Export Plug-In . SVG Version: 6.00 Build 0)  -->
<!DOCTYPE svg PUBLIC "-//W3C//DTD SVG 1.1//EN" "http://www.w3.org/Graphics/SVG/1.1/DTD/svg11.dtd">
<svg version="1.1" id="Layer_1" xmlns="http://www.w3.org/2000/svg" xmlns:xlink="http://www.w3.org/1999/xlink" x="0px" y="0px"
	 viewBox="0 560.7 798 159.9" enable-background="new 0 560.7 798 159.9" xml:space="preserve">
<g id="akira">
	<path id="a" fill="#75BD7C" d="M152.9,706.5c0-0.2,0-0.3,0-0.5c0-0.2,0-0.3,0-0.5c0-0.2,0-0.3-0.1-0.5c0-0.2-0.1-0.3-0.1-0.5
		c0-0.2-0.1-0.3-0.1-0.5c0-0.2-0.1-0.4-0.1-0.5c-0.1-0.2-0.1-0.4-0.2-0.5c-0.1-0.2-0.1-0.4-0.2-0.5c0-0.1-0.1-0.3-0.1-0.4
		c0-0.1-0.1-0.2-0.1-0.4c0-0.1-0.1-0.2-0.1-0.4c0-0.1-0.1-0.2-0.1-0.4c-0.1-0.1-0.1-0.2-0.2-0.4c-0.1-0.1-0.1-0.2-0.2-0.4
		c-0.1-0.1-0.1-0.2-0.2-0.3c-0.1-0.1-0.1-0.2-0.2-0.3L93.6,571.8c-0.4-0.9-0.8-1.7-1.3-2.5c-0.5-0.8-1-1.5-1.5-2.2
		c-0.5-0.7-1.1-1.3-1.7-1.9c-0.6-0.6-1.2-1.1-1.9-1.6c-0.7-0.5-1.4-0.9-2.1-1.3c-0.7-0.4-1.5-0.7-2.4-0.9c-0.8-0.3-1.7-0.4-2.6-0.6
		c-0.9-0.1-1.8-0.2-2.8-0.2H76c-1,0-1.9,0.1-2.8,0.2c-0.9,0.1-1.8,0.3-2.6,0.6c-0.8,0.3-1.6,0.6-2.4,0.9c-0.8,0.4-1.5,0.8-2.2,1.3
		c-0.7,0.5-1.3,1-2,1.6c-0.6,0.6-1.2,1.2-1.7,1.9c-0.5,0.7-1,1.4-1.5,2.2s-0.9,1.6-1.3,2.5L1.8,700.8c-0.1,0.3-0.3,0.6-0.4,0.8
		c-0.1,0.3-0.2,0.5-0.4,0.8c-0.1,0.3-0.2,0.5-0.3,0.8s-0.2,0.5-0.3,0.8c-0.1,0.3-0.1,0.5-0.2,0.8c-0.1,0.3-0.1,0.5-0.1,0.8
		c0,0.3-0.1,0.5-0.1,0.8c0,0.3,0,0.5,0,0.8c0,0.9,0.1,1.7,0.3,2.6c0.2,0.8,0.4,1.6,0.7,2.4c0.3,0.8,0.7,1.5,1.2,2.2
		c0.5,0.7,1,1.3,1.5,1.9c0.6,0.6,1.2,1.1,1.9,1.5c0.7,0.5,1.4,0.8,2.2,1.2c0.8,0.3,1.6,0.6,2.4,0.7c0.8,0.2,1.7,0.3,2.6,0.3
		c0.7,0,1.4-0.1,2.1-0.1s1.3-0.2,2-0.4c0.6-0.2,1.3-0.4,1.9-0.7c0.6-0.3,1.2-0.6,1.7-1c0.5-0.4,1.1-0.8,1.5-1.2s0.9-0.9,1.4-1.5
		c0.4-0.5,0.8-1.1,1.2-1.7c0.3-0.6,0.7-1.3,0.9-2l9.8-22.5l16.1-37.1v0l0.1-0.3l0.1-0.3l0.2-0.5l0.1-0.3l0.2-0.5l0.1-0.3l0,0l0,0
		l0,0l0,0l0,0l20.6-47.3c0.2-0.4,0.4-0.7,0.6-1c0.2-0.3,0.5-0.5,0.8-0.7c0.3-0.2,0.6-0.3,1-0.4c0.3-0.1,0.7-0.1,1.1-0.1
		c0.4,0,0.7,0,1,0.1s0.7,0.2,1,0.4c0.3,0.2,0.6,0.4,0.8,0.7c0.3,0.3,0.5,0.6,0.6,1l20.6,47.3v0l0,0l0,0l0,0l0.1,0.3l0.4,0.8l0.1,0.3
		l0.1,0.3l0.2,0.5v0l14.2,32.9l-8.7-2.8l-4.3-1.4l-21.7-7c-0.9-0.3-1.8-0.5-2.7-0.6c-0.9-0.1-1.8-0.1-2.7-0.1
		c-0.9,0.1-1.7,0.2-2.6,0.5c-0.8,0.2-1.6,0.6-2.4,0.9s-1.5,0.9-2.2,1.4c-0.7,0.5-1.3,1.1-1.9,1.8c-0.6,0.7-1.1,1.4-1.5,2.2
		c-0.4,0.8-0.8,1.6-1.1,2.5c-0.3,0.9-0.5,1.9-0.6,2.8c-0.1,0.9-0.1,1.8-0.1,2.7c0.1,0.9,0.2,1.8,0.5,2.6c0.2,0.8,0.5,1.7,0.9,2.4
		c0.4,0.8,0.9,1.5,1.4,2.2c0.5,0.7,1.1,1.3,1.8,1.9c0.7,0.6,1.4,1.1,2.2,1.5c0.8,0.4,1.6,0.8,2.5,1.1l23.4,7.5l7.8,2.5l31.2,10
		c0.3,0.1,0.6,0.2,0.9,0.3c0.3,0.1,0.6,0.1,0.9,0.2c0.3,0.1,0.6,0.1,0.9,0.1c0.3,0,0.6,0.1,0.9,0.1c0.3,0,0.6,0,0.9,0
		c0.3,0,0.6,0,0.9-0.1c0.3,0,0.6-0.1,0.9-0.1c0.3-0.1,0.6-0.1,0.9-0.2c0.8-0.1,1.5-0.3,2.3-0.6c0.7-0.3,1.4-0.6,2.1-0.9
		c0.7-0.4,1.3-0.8,1.9-1.3c0.6-0.5,1.1-1,1.6-1.6c0.5-0.6,0.9-1.2,1.3-1.8c0.4-0.7,0.7-1.3,1-2.1c0.3-0.7,0.5-1.5,0.6-2.3
		S152.9,707.4,152.9,706.5"/>
	<path id="k" fill="#65B2DA" d="M254.6,649.4l-2.2,2.2l-15.6,15.1c-0.6,0.6-1.2,1.2-1.7,1.8c-0.5,0.6-1,1.3-1.5,2
		c-0.5,0.7-0.9,1.4-1.3,2.1c-0.4,0.7-0.7,1.4-1.1,2.2c-0.3,0.7-0.6,1.5-0.8,2.3c-0.2,0.8-0.4,1.6-0.6,2.4c-0.2,0.8-0.3,1.6-0.4,2.4
		c-0.1,0.8-0.1,1.6-0.1,2.5v21.9c0,0.9-0.1,1.9-0.3,2.8c-0.2,0.9-0.4,1.7-0.8,2.6c-0.3,0.8-0.8,1.6-1.2,2.3c-0.5,0.7-1,1.4-1.6,2
		c-0.6,0.6-1.3,1.2-2,1.6c-0.7,0.5-1.5,0.9-2.3,1.2c-0.8,0.3-1.7,0.6-2.5,0.8c-0.9,0.2-1.8,0.3-2.8,0.3c-1,0-1.9-0.1-2.8-0.3
		c-0.9-0.2-1.8-0.4-2.6-0.8c-0.8-0.3-1.6-0.8-2.3-1.2c-0.7-0.5-1.4-1-2-1.6c-0.6-0.6-1.2-1.3-1.7-2c-0.5-0.7-0.9-1.5-1.2-2.3
		c-0.3-0.8-0.6-1.7-0.8-2.6c-0.2-0.9-0.3-1.8-0.3-2.8V575.4c0-0.9,0.1-1.9,0.3-2.8c0.2-0.9,0.4-1.7,0.8-2.6c0.3-0.8,0.8-1.6,1.2-2.3
		c0.5-0.7,1-1.4,1.7-2c0.6-0.6,1.3-1.2,2-1.6c0.7-0.5,1.5-0.9,2.3-1.2c0.8-0.3,1.7-0.6,2.6-0.8c0.9-0.2,1.9-0.3,2.8-0.3
		c0.9,0,1.9,0.1,2.8,0.3c0.9,0.2,1.7,0.4,2.5,0.8c0.8,0.3,1.6,0.8,2.3,1.2c0.7,0.5,1.4,1,2,1.6c0.6,0.6,1.2,1.3,1.6,2
		c0.5,0.7,0.9,1.5,1.2,2.3c0.3,0.8,0.6,1.7,0.8,2.6c0.2,0.9,0.3,1.8,0.3,2.8v50c0,0.7,0.1,1.4,0.3,2c0.2,0.6,0.5,1.2,0.9,1.7
		c0.4,0.5,0.8,1,1.3,1.3c0.5,0.4,1,0.7,1.6,0.9c0.6,0.2,1.2,0.4,1.8,0.5c0.6,0.1,1.2,0.1,1.9,0c0.6-0.1,1.2-0.3,1.8-0.6
		s1.1-0.7,1.7-1.2l62.7-63c0.4-0.4,0.8-0.8,1.2-1.2c0.4-0.4,0.8-0.7,1.2-1c0.4-0.3,0.8-0.6,1.3-0.9c0.4-0.3,0.9-0.5,1.3-0.7
		c0.5-0.2,0.9-0.4,1.4-0.6c0.5-0.2,1-0.3,1.5-0.4c0.5-0.1,1.1-0.2,1.6-0.3c0.6-0.1,1.2-0.1,1.8-0.1c0.9,0,1.9,0.1,2.7,0.3
		c0.9,0.2,1.7,0.4,2.5,0.8c0.8,0.3,1.5,0.7,2.2,1.2c0.7,0.5,1.3,1,1.8,1.6c0.6,0.6,1.1,1.2,1.5,1.9c0.4,0.7,0.8,1.4,1.1,2.1
		c0.3,0.8,0.5,1.5,0.7,2.3c0.1,0.8,0.2,1.6,0.2,2.5c0,0.5,0,1-0.1,1.5c-0.1,0.5-0.1,1-0.2,1.4c-0.1,0.5-0.2,0.9-0.4,1.4
		s-0.3,0.9-0.5,1.3s-0.4,0.8-0.7,1.2c-0.3,0.4-0.5,0.8-0.8,1.2c-0.3,0.4-0.6,0.8-1,1.1c-0.3,0.4-0.7,0.7-1.1,1.1l-48.5,46.7
		L254.6,649.4z M268.6,667.7c-0.6-0.7-1.1-1.5-1.4-2.2c-0.4-0.8-0.7-1.6-0.9-2.4c-0.2-0.8-0.4-1.7-0.4-2.5c-0.1-0.8,0-1.7,0.1-2.5
		c0.1-0.8,0.3-1.7,0.5-2.5c0.3-0.8,0.6-1.6,1-2.3c0.4-0.8,0.9-1.5,1.5-2.2c0.6-0.7,1.2-1.3,2-1.9c0.7-0.6,1.5-1.1,2.2-1.5
		c0.8-0.4,1.6-0.7,2.4-0.9c0.8-0.2,1.6-0.4,2.5-0.4c0.8-0.1,1.7,0,2.5,0c0.8,0.1,1.6,0.3,2.4,0.5c0.8,0.3,1.6,0.6,2.3,1
		c0.7,0.4,1.5,0.9,2.1,1.5c0.7,0.6,1.3,1.2,1.9,1.9l35.4,44.8c0.6,0.7,1,1.5,1.4,2.2c0.4,0.8,0.7,1.6,0.9,2.4
		c0.2,0.8,0.4,1.6,0.4,2.5c0.1,0.8,0.1,1.7,0,2.5c-0.1,0.8-0.3,1.6-0.5,2.4c-0.3,0.8-0.6,1.6-1,2.3c-0.4,0.7-0.9,1.5-1.5,2.1
		c-0.6,0.7-1.2,1.3-1.9,1.9c-0.7,0.6-1.5,1.1-2.3,1.5c-0.8,0.4-1.6,0.7-2.4,1c-0.8,0.2-1.7,0.4-2.5,0.5c-0.8,0.1-1.7,0.1-2.5,0
		c-0.8-0.1-1.7-0.3-2.5-0.5c-0.8-0.3-1.6-0.6-2.3-1s-1.5-0.9-2.1-1.5c-0.7-0.6-1.3-1.2-1.9-1.9L268.6,667.7z"/>
	<path id="i" fill="#F4CE76" d="M382.8,575.5c0-0.9,0.1-1.9,0.3-2.7c0.2-0.9,0.4-1.7,0.8-2.5c0.3-0.8,0.8-1.6,1.2-2.3
		c0.5-0.7,1-1.4,1.7-2c0.6-0.6,1.3-1.2,2-1.6c0.7-0.5,1.5-0.9,2.3-1.2c0.8-0.3,1.7-0.6,2.6-0.8c0.9-0.2,1.9-0.3,2.8-0.3
		c0.9,0,1.9,0.1,2.7,0.3c0.9,0.2,1.7,0.4,2.5,0.8c0.8,0.3,1.6,0.8,2.3,1.2c0.7,0.5,1.4,1,2,1.6c0.6,0.6,1.2,1.3,1.6,2
		c0.5,0.7,0.9,1.5,1.2,2.3c0.3,0.8,0.6,1.7,0.8,2.5c0.2,0.9,0.3,1.8,0.3,2.7v131.5c0,0.9-0.1,1.9-0.3,2.7c-0.2,0.9-0.4,1.7-0.8,2.5
		c-0.3,0.8-0.8,1.6-1.2,2.3c-0.5,0.7-1,1.4-1.6,2c-0.6,0.6-1.3,1.2-2,1.6c-0.7,0.5-1.5,0.9-2.3,1.2c-0.8,0.3-1.7,0.6-2.5,0.8
		c-0.9,0.2-1.8,0.3-2.7,0.3c-1,0-1.9-0.1-2.8-0.3c-0.9-0.2-1.8-0.4-2.6-0.8c-0.8-0.3-1.6-0.8-2.3-1.2c-0.7-0.5-1.4-1-2-1.6
		c-0.6-0.6-1.2-1.3-1.7-2c-0.5-0.7-0.9-1.5-1.2-2.3c-0.3-0.8-0.6-1.7-0.8-2.5c-0.2-0.9-0.3-1.8-0.3-2.7V575.5"/>
	<path id="r" fill="#9370A4" d="M570.4,657c2.2-0.9,4.4-1.9,6.4-3.1c2-1.1,4-2.4,5.8-3.8c1.8-1.4,3.5-2.9,5.1-4.5
		c1.6-1.6,3-3.3,4.3-5.2c1.3-1.8,2.5-3.8,3.5-5.9c1-2.1,1.9-4.3,2.6-6.6c0.7-2.3,1.2-4.8,1.6-7.4c0.4-2.6,0.5-5.3,0.5-8.1v-0.4
		c0-1.7-0.1-3.4-0.2-5c-0.1-1.6-0.4-3.2-0.6-4.8c-0.3-1.6-0.6-3.1-1.1-4.6c-0.4-1.5-0.9-2.9-1.5-4.3c-0.5-1.4-1.2-2.8-1.8-4.1
		c-0.7-1.3-1.4-2.6-2.2-3.9c-0.8-1.2-1.6-2.4-2.6-3.6c-0.9-1.2-1.9-2.3-2.9-3.3c-1.2-1.2-2.6-2.4-4-3.5c-1.4-1.1-2.9-2.1-4.5-3.1
		c-1.6-1-3.2-1.8-4.9-2.7c-1.7-0.8-3.5-1.6-5.4-2.2c-1.9-0.7-3.8-1.3-5.9-1.8c-2-0.5-4.1-0.9-6.3-1.3c-2.2-0.3-4.4-0.6-6.7-0.8
		c-2.3-0.2-4.7-0.3-7.1-0.3h-55.5c-0.9,0-1.9,0.1-2.8,0.3c-0.9,0.2-1.8,0.5-2.6,0.8c-0.8,0.3-1.6,0.8-2.3,1.3
		c-0.7,0.5-1.4,1.1-2,1.7c-0.6,0.6-1.2,1.3-1.7,2c-0.5,0.7-0.9,1.5-1.3,2.3c-0.3,0.8-0.6,1.7-0.8,2.6c-0.2,0.9-0.3,1.8-0.3,2.8
		v126.9c0,0.9,0.1,1.8,0.3,2.7c0.2,0.9,0.4,1.7,0.7,2.5c0.3,0.8,0.7,1.6,1.2,2.3c0.5,0.7,1,1.4,1.6,2c0.6,0.6,1.2,1.2,1.9,1.6
		c0.7,0.5,1.5,0.9,2.2,1.3c0.8,0.4,1.6,0.6,2.5,0.8c0.9,0.2,1.8,0.3,2.7,0.4c1,0,1.9,0,2.8-0.2c0.9-0.2,1.8-0.5,2.6-0.8
		s1.6-0.8,2.4-1.3c0.7-0.5,1.4-1.1,2.1-1.8c0.6-0.7,1.2-1.4,1.7-2.2c0.5-0.8,0.9-1.6,1.3-2.5s0.6-1.8,0.8-2.7
		c0.2-0.9,0.3-1.9,0.3-2.9V595.3c0-0.5,0.1-1,0.1-1.5c0.1-0.5,0.2-0.9,0.4-1.4c0.2-0.4,0.4-0.9,0.7-1.2c0.3-0.4,0.6-0.8,0.9-1.1
		c0.3-0.3,0.7-0.6,1.1-0.9c0.4-0.3,0.8-0.5,1.2-0.7c0.4-0.2,0.9-0.3,1.4-0.4c0.5-0.1,1-0.1,1.5-0.1h32.4c2.5,0,4.9,0.1,7.2,0.4
		c2.3,0.3,4.4,0.7,6.4,1.3s3.8,1.2,5.5,2.1c1.7,0.8,3.2,1.8,4.6,2.9c1.4,1.1,2.6,2.3,3.7,3.7c1.1,1.3,1.9,2.8,2.7,4.4
		c0.7,1.6,1.3,3.3,1.6,5.2c0.4,1.8,0.6,3.8,0.6,5.9v0.4c0,1.9-0.2,3.6-0.5,5.3c-0.3,1.7-0.8,3.3-1.5,4.8c-0.7,1.5-1.5,2.9-2.4,4.3
		c-1,1.3-2.1,2.5-3.3,3.7c-1.2,1.1-2.6,2.1-4.1,3c-1.5,0.9-3.2,1.7-4.9,2.3c-1.8,0.7-3.7,1.2-5.7,1.6c-2,0.4-4.1,0.7-6.3,0.8l0,0
		l0,0l0,0l0,0l0,0l0,0l0,0c0,0-0.1,0-0.2,0c-0.1,0-0.4,0.1-0.6,0.1c-0.3,0-0.6,0.1-0.9,0.2c-0.4,0.1-0.8,0.2-1.2,0.3
		c-0.4,0.1-0.9,0.3-1.3,0.5c-0.4,0.2-0.9,0.4-1.3,0.6s-0.9,0.5-1.3,0.8c-0.4,0.3-0.8,0.6-1.2,1c0,0,0,0,0,0.1c0,0,0,0,0,0.1
		c0,0,0,0,0,0.1c0,0,0,0,0,0.1c0,0,0,0,0,0.1c0,0,0,0,0,0.1c0,0,0,0,0,0.1c0,0,0,0,0,0.1c0,0-0.1,0.1-0.1,0.1c0,0-0.1,0.1-0.1,0.1
		c0,0,0,0.1-0.1,0.1c0,0,0,0.1-0.1,0.1c0,0,0,0.1-0.1,0.1c0,0,0,0.1-0.1,0.1c0,0,0,0.1-0.1,0.1c0,0,0,0.1-0.1,0.1
		c-0.8,1.1-1.4,2.2-1.8,3.3c-0.5,1.1-0.8,2.1-1,3.2c-0.2,1-0.3,2-0.2,3c0,1,0.2,2,0.4,2.9c0.2,1,0.6,1.9,1,2.9
		c0.4,0.9,0.9,1.9,1.4,2.8c0.5,0.9,1.2,1.9,1.8,2.8c0.7,0.9,1.4,1.8,2.1,2.8l0.3,0.3l0.5,0.6l0.7,0.9l0.2,0.3l0.2,0.3l32.5,41.5
		c0.4,0.5,0.8,1,1.2,1.5c0.4,0.5,0.9,0.9,1.3,1.4s0.9,0.8,1.4,1.2c0.5,0.4,1,0.7,1.6,1c0.5,0.3,1.1,0.6,1.7,0.8
		c0.6,0.2,1.2,0.4,1.9,0.6c0.6,0.2,1.3,0.3,2,0.4c0.7,0.1,1.5,0.1,2.2,0.1c0.8,0,1.7-0.1,2.5-0.2c0.8-0.2,1.6-0.4,2.4-0.7
		c0.8-0.3,1.5-0.7,2.2-1.1c0.7-0.4,1.4-0.9,2-1.5c0.6-0.6,1.2-1.2,1.7-1.8c0.5-0.7,0.9-1.4,1.3-2.2c0.4-0.8,0.6-1.6,0.8-2.4
		c0.2-0.9,0.3-1.8,0.3-2.7c0-0.5,0-1-0.1-1.5c-0.1-0.5-0.1-1-0.2-1.4c-0.1-0.5-0.2-0.9-0.4-1.3c-0.1-0.4-0.3-0.9-0.5-1.3
		c-0.2-0.4-0.4-0.8-0.6-1.2c-0.2-0.4-0.5-0.8-0.8-1.2c-0.3-0.4-0.6-0.8-0.9-1.2c-0.3-0.4-0.6-0.8-1-1.2l-26-32.8
		c-0.2-0.3-0.4-0.6-0.5-0.9c-0.1-0.3-0.2-0.6-0.3-0.9c-0.1-0.3-0.1-0.6-0.1-1c0-0.3,0.1-0.6,0.1-1c0.1-0.3,0.2-0.6,0.3-0.9
		c0.1-0.3,0.3-0.6,0.5-0.8c0.2-0.2,0.5-0.5,0.7-0.7C569.7,657.3,570,657.1,570.4,657"/>
	<path id="a2" fill="#EA7264" d="M798,706.5c0-0.2,0-0.3,0-0.5c0-0.2,0-0.3,0-0.5c0-0.2,0-0.3-0.1-0.5c0-0.2-0.1-0.3-0.1-0.5
		c0-0.2-0.1-0.3-0.1-0.5c0-0.2-0.1-0.4-0.1-0.5c-0.1-0.2-0.1-0.4-0.2-0.5c-0.1-0.2-0.1-0.4-0.2-0.5c0-0.1-0.1-0.3-0.1-0.4
		c0-0.1-0.1-0.2-0.1-0.4c0-0.1-0.1-0.2-0.1-0.4c0-0.1-0.1-0.2-0.1-0.4c0-0.1-0.1-0.2-0.2-0.4c-0.1-0.1-0.1-0.2-0.2-0.4
		c-0.1-0.1-0.1-0.2-0.2-0.3c-0.1-0.1-0.1-0.2-0.2-0.3l-57.3-127.7c-0.4-0.9-0.8-1.7-1.3-2.5c-0.5-0.8-1-1.5-1.5-2.2
		c-0.5-0.7-1.1-1.3-1.7-1.9c-0.6-0.6-1.2-1.1-1.9-1.6c-0.7-0.5-1.4-0.9-2.1-1.3c-0.7-0.4-1.5-0.7-2.4-0.9c-0.8-0.3-1.7-0.4-2.6-0.6
		c-0.9-0.1-1.8-0.2-2.8-0.2h-1.3c-1,0-1.9,0.1-2.8,0.2c-0.9,0.1-1.8,0.3-2.6,0.6c-0.8,0.3-1.6,0.6-2.4,0.9c-0.8,0.4-1.5,0.8-2.2,1.3
		c-0.7,0.5-1.3,1-2,1.6c-0.6,0.6-1.2,1.2-1.7,1.9c-0.5,0.7-1,1.4-1.5,2.2c-0.5,0.8-0.9,1.6-1.3,2.5l-57.8,128.9
		c-0.1,0.3-0.3,0.6-0.4,0.8c-0.1,0.3-0.2,0.5-0.4,0.8c-0.1,0.3-0.2,0.5-0.3,0.8c-0.1,0.3-0.2,0.5-0.3,0.8c-0.1,0.3-0.1,0.5-0.2,0.8
		c-0.1,0.3-0.1,0.5-0.1,0.8c0,0.3-0.1,0.5-0.1,0.8s0,0.5,0,0.8c0,0.9,0.1,1.7,0.3,2.6c0.2,0.8,0.4,1.6,0.7,2.4
		c0.3,0.8,0.7,1.5,1.2,2.2c0.5,0.7,1,1.3,1.5,1.9c0.6,0.6,1.2,1.1,1.9,1.5c0.7,0.5,1.4,0.8,2.2,1.2c0.8,0.3,1.6,0.6,2.4,0.7
		c0.8,0.2,1.7,0.3,2.6,0.3c0.7,0,1.4-0.1,2.1-0.1c0.7-0.1,1.3-0.2,2-0.4c0.6-0.2,1.3-0.4,1.9-0.7c0.6-0.3,1.2-0.6,1.7-1
		c0.5-0.4,1.1-0.8,1.5-1.2s0.9-0.9,1.4-1.5c0.4-0.5,0.8-1.1,1.2-1.7s0.7-1.3,0.9-2l1.2-2.8l1.2-2.8l1.2-2.8l1.2-2.8l1.2-2.8l1.2-2.8
		l1.2-2.8l1.2-2.8l6-13.9l2-4.6l6-13.9l2-4.6v0l0.1-0.3l0.1-0.3l0.1-0.3l0.1-0.3l0.1-0.3l0.1-0.3l0.1-0.3l0.1-0.3l0,0l0,0l0,0l0,0
		l0,0l0,0l2.6-5.9l2.6-5.9l2.6-5.9l2.6-5.9l2.6-5.9l2.6-5.9l2.6-5.9l2.6-5.9c0.2-0.4,0.4-0.7,0.6-1c0.3-0.3,0.5-0.5,0.8-0.7
		c0.3-0.2,0.6-0.3,1-0.4c0.3-0.1,0.7-0.1,1-0.1c0.4,0,0.7,0,1.1,0.1c0.3,0.1,0.7,0.2,1,0.4c0.3,0.2,0.6,0.4,0.8,0.7
		c0.3,0.3,0.5,0.6,0.6,1l2.6,5.9l2.6,5.9l2.6,5.9l2.6,5.9l2.6,5.9l2.6,5.9l5.1,11.8v0l0,0v0l0,0v0h0l0.1,0.3l0.5,1.1l0.1,0.3
		l0.2,0.5v0l3.6,8.2l1.8,4.1l7.1,16.4l1.8,4.1l-8.7-2.8l-4.3-1.4l-21.7-7c-0.9-0.3-1.8-0.5-2.7-0.6c-0.9-0.1-1.8-0.1-2.7-0.1
		c-0.9,0.1-1.7,0.2-2.6,0.5c-0.8,0.2-1.6,0.6-2.4,0.9s-1.5,0.9-2.2,1.4c-0.7,0.5-1.3,1.1-1.9,1.8c-0.6,0.7-1.1,1.4-1.5,2.2
		c-0.4,0.8-0.8,1.6-1.1,2.5c-0.3,0.9-0.5,1.9-0.6,2.8c-0.1,0.9-0.1,1.8-0.1,2.7c0.1,0.9,0.2,1.8,0.5,2.6c0.2,0.8,0.5,1.7,0.9,2.4
		c0.4,0.8,0.9,1.5,1.4,2.2c0.5,0.7,1.1,1.3,1.8,1.9c0.7,0.6,1.4,1.1,2.2,1.5c0.8,0.4,1.6,0.8,2.5,1.1l15.6,5l7.8,2.5l7.8,2.5
		l31.2,10c0.3,0.1,0.6,0.2,0.9,0.3c0.3,0.1,0.6,0.1,0.9,0.2c0.3,0.1,0.6,0.1,0.9,0.1c0.3,0,0.6,0.1,0.9,0.1c0.3,0,0.6,0,0.9,0
		c0.3,0,0.6,0,0.9-0.1c0.3,0,0.6-0.1,0.9-0.1c0.3-0.1,0.6-0.1,0.9-0.2c0.8-0.1,1.5-0.3,2.3-0.6c0.7-0.3,1.4-0.6,2.1-0.9
		c0.7-0.4,1.3-0.8,1.9-1.3c0.6-0.5,1.1-1,1.6-1.6c0.5-0.6,0.9-1.2,1.3-1.8c0.4-0.7,0.7-1.3,1-2.1c0.3-0.7,0.5-1.5,0.6-2.3
		S798,707.4,798,706.5"/>
</g>
</svg>
